<svg width="128" height="128" viewBox="0 0 128 128" fill="none" xmlns="http://www.w3.org/2000/svg">
<g clip-path="url(#clip0_213_24)">
<path fill-rule="evenodd" clip-rule="evenodd" d="M0 30C0 28.8954 0.895431 28 2 28H112C113.105 28 114 28.8954 114 30V51C114 52.1046 113.105 53 112 53H108C106.895 53 106 52.1046 106 51V38C106 36.8954 105.105 36 104 36H10C8.89543 36 8 36.8954 8 38V89C8 90.1046 8.89543 91 10 91H104C105.105 91 106 90.1046 106 89V76C106 74.8954 106.895 74 108 74H112C113.105 74 114 74.8954 114 76V97C114 98.1046 113.105 99 112 99H2C0.89543 99 0 98.1046 0 97V30Z" fill="white"/>
<path fill-rule="evenodd" clip-rule="evenodd" d="M127 64C127 66.2091 125.209 68 123 68L76 67.8432L84.5 76.3431C86.0621 77.9052 86.0621 80.4379 84.5 82C82.9379 83.5621 80.4052 83.5621 78.8431 82L63.5147 66.6716C61.9526 65.1095 61.9527 62.5768 63.5147 61.0147L78.8431 45.6863C80.4052 44.1243 82.9379 44.1243 84.5 45.6863C86.0621 47.2484 86.0621 49.7811 84.5 51.3432L76 59.8432L123 60C125.209 60 127 61.7908 127 64Z" fill="white"/>
</g>
<defs>
<clipPath id="clip0_213_24">
<rect width="128" height="128" fill="white"/>
</clipPath>
</defs>
</svg>
